<?xml version="1.0" standalone="no"?><!DOCTYPE svg PUBLIC "-//W3C//DTD SVG 1.1//EN" "http://www.w3.org/Graphics/SVG/1.1/DTD/svg11.dtd"><svg t="1653381135580" class="icon" viewBox="0 0 1024 1024" version="1.1" xmlns="http://www.w3.org/2000/svg" p-id="3159" xmlns:xlink="http://www.w3.org/1999/xlink" width="200" height="200"><defs><style type="text/css"></style></defs><path d="M755.904 52.16c20.8 23.232 21.12 49.344 1.152 70.976l-5.44 5.312-57.408 51.328 128 0.064c41.728 0 81.984 13.44 113.856 37.44l10.24 8.384 8.832 8.32a158.4 158.4 0 0 1 46.336 101.12l0.384 12.544v391.04c0 89.28-75.456 161.92-169.6 167.168l-16.384 0.256-0.128 2.432-0.64 4.48-1.088 4.352-2.88 8.512a68.8 68.8 0 0 1-54.592 41.984l-8.96 0.64-9.088-0.64a69.056 69.056 0 0 1-54.72-41.92 68.544 68.544 0 0 1-4.672-17.408l-0.128-2.432H348.544l-0.128 2.432-0.64 4.48-1.088 4.352-2.88 8.512a68.736 68.736 0 0 1-54.592 41.984l-8.96 0.64-9.152-0.64a68.864 68.864 0 0 1-59.328-59.328l-0.128-2.432h-5.44c-91.776 0-168.192-63.808-179.2-146.752L25.856 748.8l-0.32-10.24V347.392c0-89.344 75.456-161.984 169.6-167.232l11.008-0.32 126.976-0.064-57.408-51.392c-21.12-18.88-25.664-42.048-13.248-63.872l4.224-6.528 4.736-5.888c20.864-23.296 46.72-26.432 70.4-8.96l5.952 4.736 147.456 131.904h36.8l147.52-131.84c25.216-22.592 53.76-20.992 76.288 4.224z m66.304 240.448H206.208c-35.328 0-63.488 21.888-67.392 48.512l-0.448 6.272v391.232c0 27.328 25.728 51.136 59.84 54.4l8 0.384h615.04c35.264 0 63.488-21.824 67.328-48.512l0.448-6.272V346.688a46.016 46.016 0 0 0-14.208-33.472 73.792 73.792 0 0 0-52.608-20.608zM512 609.472a49.28 49.28 0 0 1 32.896 12.992l4.928 5.248 19.712 24.32 28.8-21.376c4.48-3.2 9.6-5.312 14.912-6.144l5.376-0.448 5.44 0.384a35.008 35.008 0 0 1 19.968 58.688l-4.16 3.776-44.224 33.024a49.216 49.216 0 0 1-62.976-3.2l-4.928-5.312-16.576-20.352-16.96 20.224a49.472 49.472 0 0 1-18.368 13.44l-7.232 2.496-7.616 1.28a49.472 49.472 0 0 1-29.44-6.592l-6.4-4.48-38.784-32a35.008 35.008 0 0 1 40-57.088l4.48 3.2 23.04 18.944 19.84-23.36a49.28 49.28 0 0 1 6.848-6.72l3.84-2.816 6.272-3.456A49.792 49.792 0 0 1 512 609.472zM388.672 404.544l6.72 0.768a50.56 50.56 0 0 1 40.704 39.424 51.392 51.392 0 0 1-32.384 58.752l-6.592 1.92-156.16 35.584A51.008 51.008 0 0 1 211.84 443.52l7.616-2.24 155.84-35.456a50.56 50.56 0 0 1 13.44-1.28z m243.392 0.704a50.56 50.56 0 0 1 13.44-0.576l6.656 1.088 155.584 35.392a51.008 51.008 0 0 1-13.44 100.8l-8.128-1.024-155.776-35.52a51.392 51.392 0 0 1-31.36-78.72 50.56 50.56 0 0 1 33.024-21.44z" p-id="3160"></path></svg>